<svg xmlns="http://www.w3.org/2000/svg" viewBox="0 0 55.97 55.97"><defs><style>.cls-1{fill:#ed9ddc;stroke:#000;stroke-miterlimit:10;stroke-width:4px;}</style></defs><title>delete</title><g id="Calque_2" data-name="Calque 2"><g id="Calque_1-2" data-name="Calque 1"><path class="cls-1" d="M41.42,28l9.76,9.76a9.51,9.51,0,0,1,0,13.44h0a9.51,9.51,0,0,1-13.44,0L28,41.42l-9.76,9.76a9.51,9.51,0,0,1-13.44,0h0a9.51,9.51,0,0,1,0-13.44L14.54,28,4.78,18.22a9.51,9.51,0,0,1,0-13.44h0a9.51,9.51,0,0,1,13.44,0L28,14.54l9.76-9.76a9.51,9.51,0,0,1,13.44,0h0a9.51,9.51,0,0,1,0,13.44Z"/></g></g></svg>