<svg xmlns="http://www.w3.org/2000/svg" viewBox="0 0 64 58.63"><defs><style>.cls-1{fill:#f7e87c;}.cls-1,.cls-2,.cls-3{stroke:#000;stroke-miterlimit:10;}.cls-1,.cls-2{stroke-width:4px;}.cls-2,.cls-3{fill:none;}.cls-3{stroke-width:3.2px;}</style></defs><title>erase_1</title><g id="Calque_2" data-name="Calque 2"><g id="Calque_1-2" data-name="Calque 1"><path class="cls-1" d="M2.23,29.38a8.21,8.21,0,0,0,.26,2c.08.29.18.58.29.87a9.55,9.55,0,0,0,.48,1l.43.74.46.81,10.3,17.84a8,8,0,0,0,14.93-4,7.92,7.92,0,0,0-1.07-4l-4.21-7.3H54a8,8,0,1,0,0-16H24.1L28.34,14A8,8,0,0,0,25.41,3.07,8,8,0,0,0,14.49,6L4.2,23.83,4,24.22,3.3,25.39A7.92,7.92,0,0,0,2.23,29.38Z"/><path class="cls-2" d="M2.49,31.42a8.21,8.21,0,0,1-.26-2,7.92,7.92,0,0,1,1.07-4L4,24.22l.22-.39a8,8,0,0,0,0,11L3.69,34l-.43-.74a9.55,9.55,0,0,1-.48-1C2.67,32,2.57,31.71,2.49,31.42Z"/><path class="cls-3" d="M2.78,32.29A7.53,7.53,0,0,0,3.69,34l-.43-.74A9.55,9.55,0,0,1,2.78,32.29Z"/><path class="cls-3" d="M2.49,31.42a8.21,8.21,0,0,1-.26-2,7.92,7.92,0,0,1,1.07-4L4,24.22a8,8,0,0,0-1.49,7.2Z"/></g></g></svg>