<svg xmlns="http://www.w3.org/2000/svg" viewBox="0 0 686.69 136.33"><defs><style>.cls-1{opacity:0.99;}.cls-2{fill:#5dc1e8;stroke:#000;stroke-miterlimit:10;stroke-width:4px;}</style></defs><title>longest</title><g id="Calque_2" data-name="Calque 2"><g id="Calque_1-2" data-name="Calque 1"><g class="cls-1"><path class="cls-2" d="M2,104.58V2H31V81.57H80v23Z"/><path class="cls-2" d="M139.89,105.9a49.28,49.28,0,0,1-23.15-5.28A40.21,40.21,0,0,1,100.84,86a39.5,39.5,0,0,1-5.79-21.32,39.17,39.17,0,0,1,5.79-21.25A39.93,39.93,0,0,1,116.74,29a49.87,49.87,0,0,1,23.15-5.21A50.32,50.32,0,0,1,163.12,29a38.57,38.57,0,0,1,21.61,35.68,39,39,0,0,1-21.61,35.9A49.73,49.73,0,0,1,139.89,105.9Zm0-22.13a16.52,16.52,0,0,0,8.57-2.2,15.41,15.41,0,0,0,5.94-6.52,22.6,22.6,0,0,0,2.2-10.33,21.74,21.74,0,0,0-2.2-10.19,15.66,15.66,0,0,0-5.94-6.37,16.52,16.52,0,0,0-8.57-2.2,15.83,15.83,0,0,0-14.43,8.57,21,21,0,0,0-2.27,10.19,21.85,21.85,0,0,0,2.27,10.33,15.81,15.81,0,0,0,6,6.52A16.23,16.23,0,0,0,139.89,83.77Z"/><path class="cls-2" d="M292.43,59.15v45.42H264.59V63.69q0-8.49-3.43-12.37t-9.61-3.89a16.69,16.69,0,0,0-8.06,2,13.71,13.71,0,0,0-5.72,6.09,23.92,23.92,0,0,0-2.05,10.69v38.39H207.88V25.15H234.4v8.69a29.36,29.36,0,0,1,7.33-5.68,39.14,39.14,0,0,1,34.59-.59,27.4,27.4,0,0,1,11.79,11.5Q292.43,46.84,292.43,59.15Z"/><path class="cls-2" d="M380.06,25.15v9.48a24.12,24.12,0,0,0-7.62-6.76q-7.17-4-17.28-4a40.74,40.74,0,0,0-19.41,4.69,36.75,36.75,0,0,0-14.23,13.27q-5.34,8.57-5.34,20.29t5.34,20.29a37.25,37.25,0,0,0,14.23,13.35,40.32,40.32,0,0,0,19.41,4.75q10.11,0,17.28-4.1a24.37,24.37,0,0,0,6.31-5.18v2.54q0,9.38-5,14.29t-16.26,4.91a49.15,49.15,0,0,1-14.43-2.27,37.7,37.7,0,0,1-12.39-6.22l-10.11,19.48a53.7,53.7,0,0,0,17.66,7.77A88.09,88.09,0,0,0,360,134.33q22.25,0,34.42-10.84t12.16-33.43V25.15Zm-3.28,45.43a15.92,15.92,0,0,1-6.16,5.72,18.84,18.84,0,0,1-8.87,2,19.21,19.21,0,0,1-8.94-2,15.55,15.55,0,0,1-6.22-5.72,15.74,15.74,0,0,1-2.29-8.5,15.79,15.79,0,0,1,2.29-8.5A15,15,0,0,1,352.81,48a19.43,19.43,0,0,1,8.94-2,19.05,19.05,0,0,1,8.87,2,15.34,15.34,0,0,1,6.16,5.63,16,16,0,0,1,2.26,8.5A15.9,15.9,0,0,1,376.78,70.58Z"/><path class="cls-2" d="M510.19,42.59a37,37,0,0,0-15.39-14A50.67,50.67,0,0,0,451,29a38.92,38.92,0,0,0-15.59,14.51,40,40,0,0,0-5.65,21.18,39,39,0,0,0,5.8,21.17,40.2,40.2,0,0,0,16.26,14.66q10.47,5.34,24.54,5.34a54,54,0,0,0,19.79-3.29A37.1,37.1,0,0,0,510.19,93L495.53,77.75A30,30,0,0,1,487.26,83a26.71,26.71,0,0,1-10,1.68,23.79,23.79,0,0,1-10.84-2.27,15.87,15.87,0,0,1-7-6.52,17.93,17.93,0,0,1-1.63-3.95h57.67c.1-1.07.2-2.24.3-3.52s.15-2.39.15-3.37Q515.91,51.83,510.19,42.59ZM457.36,57.24a17.87,17.87,0,0,1,1.69-5.19,14.81,14.81,0,0,1,5.79-6.24,18.36,18.36,0,0,1,17.43,0A15.49,15.49,0,0,1,488.14,52a16,16,0,0,1,1.71,5.27Z"/><path class="cls-2" d="M567.93,105.9a82.93,82.93,0,0,1-19.71-2.35,56.22,56.22,0,0,1-15.46-5.86l8.35-19a49.49,49.49,0,0,0,13,5.35,57.15,57.15,0,0,0,14.66,2c4.69,0,7.93-.49,9.74-1.47a4.4,4.4,0,0,0,2.71-4,3.62,3.62,0,0,0-2.56-3.45A27.14,27.14,0,0,0,572,75.42q-4.19-.58-9.16-1.32t-10-2a32.19,32.19,0,0,1-9.23-3.81,19,19,0,0,1-6.67-7,22.37,22.37,0,0,1-2.49-11.14,21.91,21.91,0,0,1,4.47-13.55q4.47-5.94,13.12-9.38t21.1-3.45A87.77,87.77,0,0,1,590,25.52a47,47,0,0,1,14.44,5.06l-8.36,18.9a40.15,40.15,0,0,0-11.72-4.62,53.66,53.66,0,0,0-11.14-1.24c-4.69,0-8,.54-9.89,1.61s-2.85,2.39-2.85,4A3.88,3.88,0,0,0,563,52.78a23.31,23.31,0,0,0,6.66,1.9q4.18.66,9.16,1.32a82.79,82.79,0,0,1,10,2A33.8,33.8,0,0,1,598,61.86a19.16,19.16,0,0,1,6.67,6.89,22,22,0,0,1,2.49,11.06A21.2,21.2,0,0,1,602.73,93q-4.47,5.86-13.19,9.38T567.93,105.9Z"/><path class="cls-2" d="M684.29,101.35a24.5,24.5,0,0,1-8.66,3.44,51.06,51.06,0,0,1-10.69,1.1q-15.24,0-23.75-7.54T632.7,75.57V48.9H621.13V28.08H632.7V7.42h27.84V28.08h18.18V48.9H660.54V75.27a9.2,9.2,0,0,0,2.35,6.67,8,8,0,0,0,6,2.42,14.31,14.31,0,0,0,8.51-2.5Z"/></g></g></g></svg>